<svg id="person_black_24dp_3_" data-name="person_black_24dp (3)" xmlns="http://www.w3.org/2000/svg" width="24" height="24" viewBox="0 0 24 24">
  <path id="Caminho_8491" data-name="Caminho 8491" d="M0,0H24V24H0Z" fill="none"/>
  <path id="Caminho_8492" data-name="Caminho 8492" d="M11.245,5.811A1.811,1.811,0,1,1,9.434,7.623a1.817,1.817,0,0,1,1.811-1.811m0,9.057c2.445,0,5.253,1.168,5.434,1.811H5.811c.208-.652,3-1.811,5.434-1.811M11.245,4a3.623,3.623,0,1,0,3.623,3.623A3.622,3.622,0,0,0,11.245,4Zm0,9.057C8.827,13.057,4,14.27,4,16.68v1.811H18.491V16.68C18.491,14.27,13.664,13.057,11.245,13.057Z" transform="translate(0.755 0.755)" fill="#271718"/>
</svg>
