<svg id="shopping_cart_black_24dp_2_" data-name="shopping_cart_black_24dp (2)" xmlns="http://www.w3.org/2000/svg" width="24" height="24" viewBox="0 0 24 24">
  <path id="Caminho_8489" data-name="Caminho 8489" d="M0,0H24V24H0Z" fill="none"/>
  <path id="Caminho_8490" data-name="Caminho 8490" d="M14.582,12.267a1.858,1.858,0,0,0,1.634-.961l3.342-6.057a.93.93,0,0,0-.812-1.381H4.93L4.052,2H1V3.867H2.867l3.361,7.084-1.26,2.277A1.87,1.87,0,0,0,6.6,16H17.8V14.133H6.6l1.027-1.867ZM5.817,5.733H17.159L14.582,10.4H8.029Zm.784,11.2A1.867,1.867,0,1,0,8.468,18.8,1.864,1.864,0,0,0,6.6,16.933Zm9.335,0A1.867,1.867,0,1,0,17.8,18.8,1.864,1.864,0,0,0,15.936,16.933Z" transform="translate(0.333 0.667)" fill="#271718"/>
</svg>
