<svg id="verified_black_24dp_2_" data-name="verified_black_24dp (2)" xmlns="http://www.w3.org/2000/svg" width="16" height="16" viewBox="0 0 16 16">
  <g id="Grupo_26162" data-name="Grupo 26162">
    <rect id="Retângulo_5044" data-name="Retângulo 5044" width="16" height="16" fill="none"/>
  </g>
  <g id="Grupo_26163" data-name="Grupo 26163" transform="translate(0.667 1)">
    <path id="Caminho_8542" data-name="Caminho 8542" d="M15.667,8.5,14.04,6.64l.227-2.46L11.86,3.633,10.6,1.5l-2.267.973L6.067,1.5,4.807,3.627,2.4,4.167l.227,2.467L1,8.5l1.627,1.86L2.4,12.827l2.407.547L6.067,15.5l2.267-.98,2.267.973,1.26-2.127,2.407-.547-.227-2.46ZM7.06,11.647,4.527,9.107l.987-.987L7.06,9.673l3.9-3.913.987.987Z" transform="translate(-1 -1.5)" fill="#dc1e1d"/>
  </g>
</svg>
